<?xml version="1.0" encoding="UTF-8"?>
<svg id="Layer_1" data-name="Layer 1" xmlns="http://www.w3.org/2000/svg" viewBox="0 0 2750.67 1000">
  <defs>
    <style>
      .cls-1 {
        font-family: Poppins-Medium, Poppins;
        font-size: 335.2px;
        font-weight: 500;
        letter-spacing: 0em;
      }

      .cls-1, .cls-2 {
        fill: #ffb31a;
      }

      .cls-3 {
        fill: #f9f8f2;
      }
    </style>
  </defs>
  <path class="cls-2" d="M715.42,804.23c-86.67,0-167.98-41.66-218.71-111.75-1.94-2.68-1.25-6.45,1.47-8.33l47.4-32.74c2.66-1.83,6.25-1.17,8.16,1.43,37.75,51.42,97.76,81.94,161.68,81.94s123.93-30.52,161.68-81.94c1.91-2.6,5.5-3.27,8.16-1.43l47.4,32.74c2.72,1.88,3.41,5.65,1.47,8.33-50.74,70.09-132.05,111.75-218.72,111.75Z"/>
  <text class="cls-1" transform="translate(1177.12 582.34)"><tspan x="0" y="0">Turismo</tspan></text>
  <path class="cls-3" d="M718.69,375.66c-11.37,0-20.59-3.13-27.43-9.32-6.79-6.14-10.23-13.96-10.23-23.23s3.45-17.49,10.24-23.75c6.83-6.29,16.06-9.48,27.42-9.48s20.24,3.19,27.07,9.48c6.8,6.26,10.25,14.25,10.25,23.75s-3.44,17.09-10.24,23.23c-6.83,6.18-15.95,9.32-27.08,9.32Z"/>
  <path class="cls-3" d="M227.87,347.28h58.2c1.53,0,2.77,1.24,2.77,2.77v228.79c0,1.53-1.24,2.77-2.77,2.77h-58.2c-1.53,0-2.77-1.24-2.77-2.77v-228.8c0-1.53,1.24-2.77,2.77-2.77Z"/>
  <path class="cls-3" d="M395.13,581.61c-23.88,0-42-5.95-53.85-17.7-11.85-11.74-17.86-29.68-17.86-53.33v-161.26c0-1.13.92-2.05,2.05-2.05h59.98c1.13,0,2.05.92,2.05,2.05v44.26h32.68c1.13,0,2.05.92,2.05,2.05v48.4c0,1.13-.92,2.05-2.05,2.05h-32.68v65.52c0,5.63,1.36,9.77,4.04,12.32,2.7,2.57,6.99,3.81,13.12,3.81h15.86c1.13,0,2.05.92,2.05,2.05v49.77c0,1.13-.92,2.05-2.05,2.05h-25.39Z"/>
  <path class="cls-3" d="M525.2,584c-14.85,0-28.5-3.93-40.56-11.68-12.07-7.75-21.75-19.06-28.75-33.61-7.02-14.59-10.58-31.84-10.58-51.28s3.56-36.62,10.58-51.1c7-14.43,16.67-25.69,28.75-33.44,12.07-7.75,25.71-11.68,40.56-11.68,12.85,0,24.06,2.57,33.33,7.65,9.25,5.07,16.5,11.99,21.56,20.56l2.79,4.73v-28.71c0-1.01.82-1.84,1.84-1.84h60.06c1.01,0,1.84.82,1.84,1.84v184.35c0,1.01-.82,1.84-1.84,1.84h-60.06c-1.01,0-1.84-.82-1.84-1.84v-28.71l-2.79,4.73c-5.06,8.58-12.37,15.49-21.73,20.55-9.38,5.08-20.54,7.65-33.17,7.65ZM546.65,446.43c-10.37,0-19.1,3.65-25.94,10.85-6.83,7.18-10.29,17.32-10.29,30.15s3.46,22.73,10.27,30.13c6.85,7.44,15.58,11.21,25.96,11.21s18.81-3.71,25.77-11.02c6.94-7.29,10.46-17.49,10.46-30.32s-3.52-22.68-10.46-29.98c-6.96-7.31-15.64-11.02-25.77-11.02Z"/>
  <path class="cls-3" d="M659.29,672.87c-1.01,0-1.84-.82-1.84-1.84v-55.59c0-1.01.82-1.84,1.84-1.84h10.96c6.03,0,10.49-1.28,13.27-3.79,2.81-2.56,4.24-6.71,4.24-12.35v-202.03c0-1.01.82-1.84,1.84-1.84h60.06c1.01,0,1.84.82,1.84,1.84v206.41c0,23.65-5.98,41.59-17.78,53.33-11.8,11.74-29.83,17.7-53.59,17.7h-20.84Z"/>
  <path class="cls-3" d="M861.28,584c-14.85,0-28.5-3.93-40.56-11.68-12.07-7.75-21.74-19.06-28.75-33.61-7.02-14.59-10.58-31.84-10.58-51.28s3.56-36.62,10.57-51.1c7-14.43,16.67-25.69,28.75-33.44,12.07-7.75,25.71-11.68,40.56-11.68,12.84,0,24.06,2.57,33.33,7.65,9.25,5.07,16.51,11.99,21.56,20.56l2.79,4.73v-28.72c0-1.01.82-1.84,1.84-1.84h60.06c1.01,0,1.84.82,1.84,1.84v184.35c0,1.01-.82,1.84-1.84,1.84h-60.06c-1.01,0-1.84-.82-1.84-1.84v-28.72l-2.79,4.73c-5.06,8.58-12.37,15.49-21.73,20.55-9.38,5.08-20.54,7.65-33.16,7.65ZM882.73,446.43c-10.37,0-19.09,3.65-25.94,10.85-6.83,7.18-10.29,17.32-10.29,30.15s3.46,22.73,10.27,30.13c6.85,7.44,15.58,11.21,25.96,11.21s18.81-3.71,25.77-11.02c6.94-7.29,10.46-17.49,10.46-30.32s-3.52-22.68-10.46-29.98c-6.96-7.31-15.64-11.02-25.77-11.02Z"/>
  <path class="cls-3" d="M1023.8,376.94c-.77,0-1.6-.62-1.6-1.61v-35.84c0-.63.37-1.2.94-1.46l60.87-27.51c.21-.1.44-.15.66-.15.77,0,1.61.62,1.61,1.61v39.49c0,.67-.4,1.25-1.02,1.5l-60.87,23.86c-.19.08-.39.11-.59.11h0Z"/>
  <rect class="cls-3" x="1022.2" y="393.59" width="64.08" height="188.02" rx="1.61" ry="1.61"/>
</svg>